HIERARCHY
ROOT Hips
{
	OFFSET 0.00000 0.00000 0.00000
	CHANNELS 6 Xposition Yposition Zposition Zrotation Yrotation Xrotation 
	JOINT LHipJoint
	{
		OFFSET 0 0 0
		CHANNELS 3 Zrotation Yrotation Xrotation
		JOINT LeftUpLeg
		{
			OFFSET 1.54859 -1.61379 0.86856
			CHANNELS 3 Zrotation Yrotation Xrotation
			JOINT LeftLeg
			{
				OFFSET 2.25087 -6.18423 0.00000
				CHANNELS 3 Zrotation Yrotation Xrotation
				JOINT LeftFoot
				{
					OFFSET 2.40328 -6.60297 0.00000
					CHANNELS 3 Zrotation Yrotation Xrotation
					JOINT LeftToeBase
					{
						OFFSET 0.17435 -0.47901 2.02453
						CHANNELS 3 Zrotation Yrotation Xrotation
						End Site
						{
							OFFSET 0.00000 -0.00000 1.04844
						}
					}
				}
			}
		}
	}
	JOINT RHipJoint
	{
		OFFSET 0 0 0
		CHANNELS 3 Zrotation Yrotation Xrotation
		JOINT RightUpLeg
		{
			OFFSET -1.54669 -1.61379 0.86856
			CHANNELS 3 Zrotation Yrotation Xrotation
			JOINT RightLeg
			{
				OFFSET -2.28132 -6.26789 0.00000
				CHANNELS 3 Zrotation Yrotation Xrotation
				JOINT RightFoot
				{
					OFFSET -2.51636 -6.91365 0.00000
					CHANNELS 3 Zrotation Yrotation Xrotation
					JOINT RightToeBase
					{
						OFFSET -0.15124 -0.41552 2.21090
						CHANNELS 3 Zrotation Yrotation Xrotation
						End Site
						{
							OFFSET -0.00000 -0.00000 1.13399
						}
					}
				}
			}
		}
	}
	JOINT LowerBack
	{
		OFFSET 0 0 0
		CHANNELS 3 Zrotation Yrotation Xrotation
		JOINT Spine
		{
			OFFSET -0.04287 2.26161 -0.25690
			CHANNELS 3 Zrotation Yrotation Xrotation
			JOINT Spine1
			{
				OFFSET 0.02248 2.28395 -0.10140
				CHANNELS 3 Zrotation Yrotation Xrotation
				JOINT Neck
				{
					OFFSET 0 0 0
					CHANNELS 3 Zrotation Yrotation Xrotation
					JOINT Neck1
					{
						OFFSET -0.11644 1.38496 0.11345
						CHANNELS 3 Zrotation Yrotation Xrotation
						JOINT Head
						{
							OFFSET 0.29383 1.36600 0.06642
							CHANNELS 3 Zrotation Yrotation Xrotation
							End Site
							{
								OFFSET 0.11075 1.41395 -0.00294
							}
						}
					}
				}
				JOINT LeftShoulder
				{
					OFFSET 0 0 0
					CHANNELS 3 Zrotation Yrotation Xrotation
					JOINT LeftArm
					{
						OFFSET 3.51628 0.59542 -0.30346
						CHANNELS 3 Zrotation Yrotation Xrotation
						JOINT LeftForeArm
						{
							OFFSET 4.76405 -0.00000 0.00000
							CHANNELS 3 Zrotation Yrotation Xrotation
							JOINT LeftHand
							{
								OFFSET 3.13759 -0.00000 -0.00000
								CHANNELS 3 Zrotation Yrotation Xrotation
								JOINT LeftFingerBase
								{
									OFFSET 0 0 0
									CHANNELS 3 Zrotation Yrotation Xrotation
									JOINT LeftHandIndex1
									{
										OFFSET 0.73226 -0.00000 -0.00000
										CHANNELS 3 Zrotation Yrotation Xrotation
										End Site
										{
											OFFSET 0.59037 -0.00000 -0.00000
										}
									}
								}
								JOINT LThumb
								{
									OFFSET 0 0 0
									CHANNELS 3 Zrotation Yrotation Xrotation
									End Site
									{
										OFFSET 0.59938 -0.00000 0.59938
									}
								}
							}
						}
					}
				}
				JOINT RightShoulder
				{
					OFFSET 0 0 0
					CHANNELS 3 Zrotation Yrotation Xrotation
					JOINT RightArm
					{
						OFFSET -3.30990 0.84213 -0.36430
						CHANNELS 3 Zrotation Yrotation Xrotation
						JOINT RightForeArm
						{
							OFFSET -5.10161 -0.00000 -0.00000
							CHANNELS 3 Zrotation Yrotation Xrotation
							JOINT RightHand
							{
								OFFSET -3.23267 -0.00000 -0.00000
								CHANNELS 3 Zrotation Yrotation Xrotation
								JOINT RightFingerBase
								{
									OFFSET 0 0 0
									CHANNELS 3 Zrotation Yrotation Xrotation
									JOINT RightHandIndex1
									{
										OFFSET -0.70200 -0.00000 -0.00000
										CHANNELS 3 Zrotation Yrotation Xrotation
										End Site
										{
											OFFSET -0.56597 -0.00000 -0.00000
										}
									}
								}
								JOINT RThumb
								{
									OFFSET 0 0 0
									CHANNELS 3 Zrotation Yrotation Xrotation
									End Site
									{
										OFFSET -0.57461 -0.00000 0.57461
									}
								}
							}
						}
					}
				}
			}
		}
	}
}
MOTION
Frames: 7
Frame Time: 0.0625
0.00 0.00 0.00 0 0 0 0 0 0 -21 0 0 0 0 0 0 0 0 0 0 0 0 0 0 21 0 0 0 0 0 0 0 0 0 0 0 0 0 0 0 0 0 0 0 0 0 0 -16 0 0 21 0 0 11 0 0 0 -8 0 0 0 0 0 0 0 0 0 0 0 0 0 0 0 0 0 0 0 0 8 0 0 0 0 0 0 0 0 0 0 0 0 0 0 0 0 0
0.00 0.00 0.00 -3.5187 59.4253 3.9197 0.0000 0.0000 0.0000 -1.9981 8.7098 -39.7160 7.9008 16.0458 52.2046 0.4352 -5.9186 -11.8346 0.3321 -3.7039 -10.2451 0.0000 0.0000 0.0000 8.7483 -5.8939 0.9724 -2.1773 -9.2260 26.5047 -2.6480 -3.8304 -32.2838 -1.5594 7.8807 -22.3522 -0.1422 1.0778 18.3466 3.3497 1.8509 8.5730 3.2679 1.0033 -1.1925 -12.5173 -7.8178 -4.2515 18.6324 -8.1736 -16.4898 7.9059 -4.0630 -2.6526 -0.0000 -0.0000 0.0000 -87.1677 6.9143 41.7660 87.7617 -59.9811 -58.0617 -0.0000 0.0000 -42.3836 0.0547 16.7454 0.0158 -7.1250 0.0000 -0.0000 -25.5632 45.0481 -0.0325 -0.0000 -0.0000 0.0000 84.8124 1.6245 62.6169 -77.0376 59.3555 -48.7985 0.0000 -0.0000 -7.8892 -22.8174 20.9664 -8.5611 7.1250 -0.0000 -0.0000 3.6714 -7.4444 3.1715
0.00 0.00 0.00 -5.2086 52.4159 1.2312 0.0000 0.0000 0.0000 11.2816 6.7400 -30.3099 4.7246 13.0668 39.6191 0.0158 -5.0683 -4.0479 2.9519 -10.6168 -30.9980 0.0000 0.0000 0.0000 5.2388 -12.2217 -6.6522 -5.4263 -13.8484 42.6335 -2.7554 -3.7237 -32.8496 -1.2292 7.0314 -19.8085 -5.4489 9.1868 22.9426 -0.2189 11.0407 8.9480 -0.0927 5.4873 -3.6729 -19.7929 -15.4203 0.0098 37.8317 -17.5082 -20.5123 15.1618 -9.6183 0.4203 -0.0000 0.0000 0.0000 -75.3117 -4.4886 32.9394 97.6764 -59.7762 -66.6430 -0.0000 0.0000 -48.1260 -13.6719 23.7250 -5.5899 -7.1250 0.0000 -0.0000 -41.0797 49.0849 -4.8998 -0.0000 0.0000 0.0000 89.4575 6.1030 57.9210 -72.0396 58.7454 -44.5114 0.0000 -0.0000 -10.7921 -22.3654 21.7567 -8.6717 7.1250 -0.0000 -0.0000 4.0321 -6.6852 3.5443
0.00 0.00 0.00 -1.2294 51.3938 1.3667 0.0000 0.0000 0.0000 9.3675 12.6257 -29.9496 7.4262 15.6805 50.4685 -0.2408 -14.2165 -6.8471 3.2636 -11.1100 -32.6516 0.0000 0.0000 0.0000 -0.0181 -14.9280 -13.6534 -10.7286 -17.7997 61.8970 -1.0838 -8.0339 -24.1141 -1.7243 8.2665 -23.5264 -13.9640 12.3994 29.0655 -2.3339 12.2344 9.7537 0.6503 6.0144 -5.8640 -19.7620 -17.2042 4.7437 44.5541 -19.4812 -25.1314 18.3031 -11.8022 0.2303 0.0000 -0.0000 0.0000 -75.9259 -19.1356 24.2009 111.0962 -58.2497 -78.1625 -0.0000 0.0000 -50.3568 -15.8959 28.4780 -7.7328 -7.1250 0.0000 -0.0000 -46.5771 52.3648 -10.2626 0.0000 -0.0000 0.0000 90.9067 10.5700 47.1098 -50.0488 53.0152 -26.2132 0.0000 -0.0000 -18.9083 -21.5823 23.2459 -8.8736 7.1250 -0.0000 -0.0000 4.6657 -5.2558 4.2330
0.00 0.00 0.00 -1.9213 55.3329 0.5717 0.0000 0.0000 0.0000 10.7062 11.3113 -28.8683 8.1078 16.1980 52.9500 -0.2228 -17.7952 -10.3123 4.4793 -12.7722 -38.5217 0.0000 0.0000 0.0000 -0.5791 -17.9846 -20.6095 -14.8688 -19.3567 74.8411 -1.1662 -0.3856 -20.5607 -2.5169 9.8685 -28.5519 -17.8749 12.3028 33.5187 -2.4541 10.0969 9.9506 2.5286 5.0193 -7.1619 -19.3838 -17.4501 4.8436 46.8441 -20.2999 -23.6779 18.9635 -12.4280 1.3139 -0.0000 0.0000 0.0000 -82.4828 -37.9173 30.1395 127.8183 -53.8384 -92.0738 -0.0000 0.0000 -33.4830 -12.4212 33.4231 -6.9172 -7.1250 0.0000 -0.0000 -48.2451 56.6492 -16.3752 -0.0000 0.0000 0.0000 89.0031 8.3296 35.0374 -32.8313 43.1999 -13.3064 0.0000 -0.0000 -24.3495 -19.8622 24.5755 -8.5443 7.1250 -0.0000 -0.0000 5.8548 -4.1648 5.4431
0.00 0.00 0.00 -0.3993 55.7485 3.4784 0.0000 0.0000 0.0000 11.2506 12.4017 -21.3221 6.4574 14.8574 46.7910 0.4689 -15.6589 -15.4365 5.8551 -14.2865 -44.3975 0.0000 0.0000 0.0000 -2.3183 -19.3435 -36.1794 -19.0394 -19.9779 87.1905 -1.0988 0.5238 -19.6527 -3.8823 12.0021 -35.7395 -21.8962 10.1906 35.9636 -2.3407 5.5593 10.0135 6.1433 2.8817 -7.2020 -18.4733 -16.2544 2.6387 44.5183 -18.8462 -21.8253 17.8144 -11.2918 1.0785 0.0000 -0.0000 0.0000 -88.2544 -61.2168 63.3043 138.5882 -48.8845 -100.5037 -0.0000 -0.0000 5.8516 -0.2019 39.9166 -0.1295 -7.1250 0.0000 -0.0000 -45.0121 64.2671 -23.2014 0.0000 -0.0000 0.0000 83.2523 1.2698 23.7550 -24.3338 35.5152 -7.8996 0.0000 -0.0000 -30.4269 -18.1412 25.1756 -7.9347 7.1250 -0.0000 -0.0000 6.9608 -3.8281 6.5298
0.00 0.00 0.00 3.4664 47.8626 9.3969 0.0000 0.0000 0.0000 8.1080 16.1398 -6.8224 3.2481 11.0862 32.5711 1.1870 -7.2774 -19.4636 6.4248 -14.8277 -46.6637 0.0000 0.0000 0.0000 -1.2112 -16.1540 -54.7137 -22.1537 -19.8884 96.3081 -1.2918 5.2267 -20.3987 -1.8224 8.4858 -24.1998 -25.2052 6.6077 30.5078 -2.1293 1.1659 8.6615 9.9622 0.6725 -5.6511 -19.9488 -13.9080 -0.7971 40.8238 -16.2575 -17.5914 16.6075 -9.1220 1.4898 -0.0000 0.0000 0.0000 -74.9168 -56.5357 65.8526 126.5052 -54.3113 -91.0104 -0.0000 -0.0000 18.9492 14.0808 41.6819 9.4696 -7.1250 0.0000 -0.0000 -33.4271 69.8961 -20.6739 -0.0000 0.0000 0.0000 79.4144 -5.2017 17.5167 -28.5827 39.6471 -10.4934 0.0000 -0.0000 -34.5009 -17.7404 23.7399 -7.3389 7.1250 -0.0000 -0.0000 7.0920 -5.3549 6.4499
